<svg width="10" height="10" viewBox="0 0 10 10" fill="none" xmlns="http://www.w3.org/2000/svg">
<path d="M4.88782 9.24107L8.32532 5H10L5.68109 10H4.48718L4.88782 9.24107ZM1.67468 5L5.08013 9.24107L5.50481 10H4.3109L0 5H1.67468Z" fill="#FFBE1E"/>
<path d="M0 0H4.56008C5.59445 0 6.46799 0.0572344 7.1807 0.171703C7.89972 0.286172 8.44529 0.455586 8.81741 0.679945C9.19584 0.902015 9.38505 1.1756 9.38505 1.50069C9.38505 1.72962 9.25576 1.9391 8.99716 2.12912C8.74488 2.31685 8.37906 2.47711 7.89972 2.60989C7.42668 2.74038 6.85903 2.83768 6.19678 2.90179L5.6859 2.9739H1.40019L1.38127 2.43475H4.61684C5.27278 2.43475 5.81835 2.39354 6.25355 2.31113C6.68874 2.22642 7.01671 2.1131 7.23746 1.97115C7.45822 1.82921 7.56859 1.67239 7.56859 1.50069C7.56859 1.30838 7.46452 1.14011 7.25639 0.995879C7.04825 0.851648 6.72028 0.740614 6.27247 0.662775C5.83097 0.582647 5.26017 0.542582 4.56008 0.542582H1.82592V5H0V0ZM8.05109 5L4.70199 2.73352L6.6036 2.73008L10 4.95879V5H8.05109Z" fill="#61D9FB"/>
</svg>
