<svg width="46" height="10" viewBox="0 0 46 10" fill="none" xmlns="http://www.w3.org/2000/svg">
<path d="M0.990234 0.46875H3.81445C4.45508 0.46875 4.99609 0.566406 5.4375 0.761719C5.88281 0.957031 6.2207 1.24609 6.45117 1.62891C6.68555 2.00781 6.80273 2.47461 6.80273 3.0293C6.80273 3.41992 6.72266 3.77734 6.5625 4.10156C6.40625 4.42188 6.17969 4.69531 5.88281 4.92188C5.58984 5.14453 5.23828 5.31055 4.82812 5.41992L4.51172 5.54297H1.85742L1.8457 4.62305H3.84961C4.25586 4.62305 4.59375 4.55273 4.86328 4.41211C5.13281 4.26758 5.33594 4.07422 5.47266 3.83203C5.60938 3.58984 5.67773 3.32227 5.67773 3.0293C5.67773 2.70117 5.61328 2.41406 5.48438 2.16797C5.35547 1.92188 5.15234 1.73242 4.875 1.59961C4.60156 1.46289 4.24805 1.39453 3.81445 1.39453H2.12109V9H0.990234V0.46875ZM5.97656 9L3.90234 5.13281L5.08008 5.12695L7.18359 8.92969V9H5.97656Z" fill="#61D9FB"/>
<path d="M11.7441 7.70508L14.2578 0.46875H15.4824L12.3242 9H11.4512L11.7441 7.70508ZM9.39453 0.46875L11.8848 7.70508L12.1953 9H11.3223L8.16992 0.46875H9.39453Z" fill="#FFBE1E"/>
<path d="M20.1367 5.6543H17.8574V4.73438H20.1367C20.5781 4.73438 20.9355 4.66406 21.209 4.52344C21.4824 4.38281 21.6816 4.1875 21.8066 3.9375C21.9355 3.6875 22 3.40234 22 3.08203C22 2.78906 21.9355 2.51367 21.8066 2.25586C21.6816 1.99805 21.4824 1.79102 21.209 1.63477C20.9355 1.47461 20.5781 1.39453 20.1367 1.39453H18.1211V9H16.9902V0.46875H20.1367C20.7812 0.46875 21.3262 0.580078 21.7715 0.802734C22.2168 1.02539 22.5547 1.33398 22.7852 1.72852C23.0156 2.11914 23.1309 2.56641 23.1309 3.07031C23.1309 3.61719 23.0156 4.08398 22.7852 4.4707C22.5547 4.85742 22.2168 5.15234 21.7715 5.35547C21.3262 5.55469 20.7812 5.6543 20.1367 5.6543ZM25.4805 3.65625V9H24.3965V2.66016H25.4512L25.4805 3.65625ZM27.4609 2.625L27.4551 3.63281C27.3652 3.61328 27.2793 3.60156 27.1973 3.59766C27.1191 3.58984 27.0293 3.58594 26.9277 3.58594C26.6777 3.58594 26.457 3.625 26.2656 3.70312C26.0742 3.78125 25.9121 3.89062 25.7793 4.03125C25.6465 4.17188 25.541 4.33984 25.4629 4.53516C25.3887 4.72656 25.3398 4.9375 25.3164 5.16797L25.0117 5.34375C25.0117 4.96094 25.0488 4.60156 25.123 4.26562C25.2012 3.92969 25.3203 3.63281 25.4805 3.375C25.6406 3.11328 25.8438 2.91016 26.0898 2.76562C26.3398 2.61719 26.6367 2.54297 26.9805 2.54297C27.0586 2.54297 27.1484 2.55273 27.25 2.57227C27.3516 2.58789 27.4219 2.60547 27.4609 2.625ZM30.9766 9.11719C30.5352 9.11719 30.1348 9.04297 29.7754 8.89453C29.4199 8.74219 29.1133 8.5293 28.8555 8.25586C28.6016 7.98242 28.4062 7.6582 28.2695 7.2832C28.1328 6.9082 28.0645 6.49805 28.0645 6.05273V5.80664C28.0645 5.29102 28.1406 4.83203 28.293 4.42969C28.4453 4.02344 28.6523 3.67969 28.9141 3.39844C29.1758 3.11719 29.4727 2.9043 29.8047 2.75977C30.1367 2.61523 30.4805 2.54297 30.8359 2.54297C31.2891 2.54297 31.6797 2.62109 32.0078 2.77734C32.3398 2.93359 32.6113 3.15234 32.8223 3.43359C33.0332 3.71094 33.1895 4.03906 33.291 4.41797C33.3926 4.79297 33.4434 5.20312 33.4434 5.64844V6.13477H28.709V5.25H32.3594V5.16797C32.3438 4.88672 32.2852 4.61328 32.1836 4.34766C32.0859 4.08203 31.9297 3.86328 31.7148 3.69141C31.5 3.51953 31.207 3.43359 30.8359 3.43359C30.5898 3.43359 30.3633 3.48633 30.1562 3.5918C29.9492 3.69336 29.7715 3.8457 29.623 4.04883C29.4746 4.25195 29.3594 4.5 29.2773 4.79297C29.1953 5.08594 29.1543 5.42383 29.1543 5.80664V6.05273C29.1543 6.35352 29.1953 6.63672 29.2773 6.90234C29.3633 7.16406 29.4863 7.39453 29.6465 7.59375C29.8105 7.79297 30.0078 7.94922 30.2383 8.0625C30.4727 8.17578 30.7383 8.23242 31.0352 8.23242C31.418 8.23242 31.7422 8.1543 32.0078 7.99805C32.2734 7.8418 32.5059 7.63281 32.7051 7.37109L33.3613 7.89258C33.2246 8.09961 33.0508 8.29688 32.8398 8.48438C32.6289 8.67188 32.3691 8.82422 32.0605 8.94141C31.7559 9.05859 31.3945 9.11719 30.9766 9.11719ZM38.4004 7.31836C38.4004 7.16211 38.3652 7.01758 38.2949 6.88477C38.2285 6.74805 38.0898 6.625 37.8789 6.51562C37.6719 6.40234 37.3594 6.30469 36.9414 6.22266C36.5898 6.14844 36.2715 6.06055 35.9863 5.95898C35.7051 5.85742 35.4648 5.73438 35.2656 5.58984C35.0703 5.44531 34.9199 5.27539 34.8145 5.08008C34.709 4.88477 34.6562 4.65625 34.6562 4.39453C34.6562 4.14453 34.7109 3.9082 34.8203 3.68555C34.9336 3.46289 35.0918 3.26562 35.2949 3.09375C35.502 2.92188 35.75 2.78711 36.0391 2.68945C36.3281 2.5918 36.6504 2.54297 37.0059 2.54297C37.5137 2.54297 37.9473 2.63281 38.3066 2.8125C38.666 2.99219 38.9414 3.23242 39.1328 3.5332C39.3242 3.83008 39.4199 4.16016 39.4199 4.52344H38.3359C38.3359 4.34766 38.2832 4.17773 38.1777 4.01367C38.0762 3.8457 37.9258 3.70703 37.7266 3.59766C37.5312 3.48828 37.291 3.43359 37.0059 3.43359C36.7051 3.43359 36.4609 3.48047 36.2734 3.57422C36.0898 3.66406 35.9551 3.7793 35.8691 3.91992C35.7871 4.06055 35.7461 4.20898 35.7461 4.36523C35.7461 4.48242 35.7656 4.58789 35.8047 4.68164C35.8477 4.77148 35.9219 4.85547 36.0273 4.93359C36.1328 5.00781 36.2812 5.07812 36.4727 5.14453C36.6641 5.21094 36.9082 5.27734 37.2051 5.34375C37.7246 5.46094 38.1523 5.60156 38.4883 5.76562C38.8242 5.92969 39.0742 6.13086 39.2383 6.36914C39.4023 6.60742 39.4844 6.89648 39.4844 7.23633C39.4844 7.51367 39.4258 7.76758 39.3086 7.99805C39.1953 8.22852 39.0293 8.42773 38.8105 8.5957C38.5957 8.75977 38.3379 8.88867 38.0371 8.98242C37.7402 9.07227 37.4062 9.11719 37.0352 9.11719C36.4766 9.11719 36.0039 9.01758 35.6172 8.81836C35.2305 8.61914 34.9375 8.36133 34.7383 8.04492C34.5391 7.72852 34.4395 7.39453 34.4395 7.04297H35.5293C35.5449 7.33984 35.6309 7.57617 35.7871 7.75195C35.9434 7.92383 36.1348 8.04688 36.3613 8.12109C36.5879 8.19141 36.8125 8.22656 37.0352 8.22656C37.332 8.22656 37.5801 8.1875 37.7793 8.10938C37.9824 8.03125 38.1367 7.92383 38.2422 7.78711C38.3477 7.65039 38.4004 7.49414 38.4004 7.31836ZM44.5996 7.31836C44.5996 7.16211 44.5645 7.01758 44.4941 6.88477C44.4277 6.74805 44.2891 6.625 44.0781 6.51562C43.8711 6.40234 43.5586 6.30469 43.1406 6.22266C42.7891 6.14844 42.4707 6.06055 42.1855 5.95898C41.9043 5.85742 41.6641 5.73438 41.4648 5.58984C41.2695 5.44531 41.1191 5.27539 41.0137 5.08008C40.9082 4.88477 40.8555 4.65625 40.8555 4.39453C40.8555 4.14453 40.9102 3.9082 41.0195 3.68555C41.1328 3.46289 41.291 3.26562 41.4941 3.09375C41.7012 2.92188 41.9492 2.78711 42.2383 2.68945C42.5273 2.5918 42.8496 2.54297 43.2051 2.54297C43.7129 2.54297 44.1465 2.63281 44.5059 2.8125C44.8652 2.99219 45.1406 3.23242 45.332 3.5332C45.5234 3.83008 45.6191 4.16016 45.6191 4.52344H44.5352C44.5352 4.34766 44.4824 4.17773 44.377 4.01367C44.2754 3.8457 44.125 3.70703 43.9258 3.59766C43.7305 3.48828 43.4902 3.43359 43.2051 3.43359C42.9043 3.43359 42.6602 3.48047 42.4727 3.57422C42.2891 3.66406 42.1543 3.7793 42.0684 3.91992C41.9863 4.06055 41.9453 4.20898 41.9453 4.36523C41.9453 4.48242 41.9648 4.58789 42.0039 4.68164C42.0469 4.77148 42.1211 4.85547 42.2266 4.93359C42.332 5.00781 42.4805 5.07812 42.6719 5.14453C42.8633 5.21094 43.1074 5.27734 43.4043 5.34375C43.9238 5.46094 44.3516 5.60156 44.6875 5.76562C45.0234 5.92969 45.2734 6.13086 45.4375 6.36914C45.6016 6.60742 45.6836 6.89648 45.6836 7.23633C45.6836 7.51367 45.625 7.76758 45.5078 7.99805C45.3945 8.22852 45.2285 8.42773 45.0098 8.5957C44.7949 8.75977 44.5371 8.88867 44.2363 8.98242C43.9395 9.07227 43.6055 9.11719 43.2344 9.11719C42.6758 9.11719 42.2031 9.01758 41.8164 8.81836C41.4297 8.61914 41.1367 8.36133 40.9375 8.04492C40.7383 7.72852 40.6387 7.39453 40.6387 7.04297H41.7285C41.7441 7.33984 41.8301 7.57617 41.9863 7.75195C42.1426 7.92383 42.334 8.04688 42.5605 8.12109C42.7871 8.19141 43.0117 8.22656 43.2344 8.22656C43.5312 8.22656 43.7793 8.1875 43.9785 8.10938C44.1816 8.03125 44.3359 7.92383 44.4414 7.78711C44.5469 7.65039 44.5996 7.49414 44.5996 7.31836Z" fill="#003C56"/>
</svg>
